<svg width="160" height="53" viewBox="0 0 160 53" fill="none" xmlns="http://www.w3.org/2000/svg">
<rect x="0.5" y="0.5" width="159" height="52" fill="white"/>
<rect x="0.5" y="0.5" width="159" height="52" stroke="url(#paint0_linear_5148_5114)"/>
<path d="M46.958 29.138H43.066L42.422 31H40.364L43.878 21.214H46.16L49.674 31H47.602L46.958 29.138ZM46.426 27.57L45.012 23.482L43.598 27.57H46.426ZM59.3635 24.252C59.3635 24.7747 59.2375 25.2647 58.9855 25.722C58.7428 26.1793 58.3555 26.548 57.8235 26.828C57.3008 27.108 56.6382 27.248 55.8355 27.248H54.1975V31H52.2375V21.228H55.8355C56.5915 21.228 57.2355 21.3587 57.7675 21.62C58.2995 21.8813 58.6962 22.2407 58.9575 22.698C59.2282 23.1553 59.3635 23.6733 59.3635 24.252ZM55.7515 25.666C56.2928 25.666 56.6942 25.5447 56.9555 25.302C57.2168 25.05 57.3475 24.7 57.3475 24.252C57.3475 23.3 56.8155 22.824 55.7515 22.824H54.1975V25.666H55.7515ZM69.1311 24.252C69.1311 24.7747 69.0051 25.2647 68.7531 25.722C68.5104 26.1793 68.1231 26.548 67.5911 26.828C67.0684 27.108 66.4057 27.248 65.6031 27.248H63.9651V31H62.0051V21.228H65.6031C66.3591 21.228 67.0031 21.3587 67.5351 21.62C68.0671 21.8813 68.4637 22.2407 68.7251 22.698C68.9957 23.1553 69.1311 23.6733 69.1311 24.252ZM65.5191 25.666C66.0604 25.666 66.4617 25.5447 66.7231 25.302C66.9844 25.05 67.1151 24.7 67.1151 24.252C67.1151 23.3 66.5831 22.824 65.5191 22.824H63.9651V25.666H65.5191ZM75.1466 31.098C74.4653 31.098 73.8493 30.9813 73.2986 30.748C72.7573 30.5147 72.328 30.1787 72.0106 29.74C71.6933 29.3013 71.53 28.7833 71.5206 28.186H73.6206C73.6486 28.5873 73.7886 28.9047 74.0406 29.138C74.302 29.3713 74.6566 29.488 75.1046 29.488C75.562 29.488 75.9213 29.3807 76.1826 29.166C76.444 28.942 76.5746 28.6527 76.5746 28.298C76.5746 28.0087 76.486 27.7707 76.3086 27.584C76.1313 27.3973 75.9073 27.2527 75.6366 27.15C75.3753 27.038 75.0113 26.9167 74.5446 26.786C73.91 26.5993 73.392 26.4173 72.9906 26.24C72.5986 26.0533 72.258 25.778 71.9686 25.414C71.6886 25.0407 71.5486 24.546 71.5486 23.93C71.5486 23.3513 71.6933 22.8473 71.9826 22.418C72.272 21.9887 72.678 21.662 73.2006 21.438C73.7233 21.2047 74.3206 21.088 74.9926 21.088C76.0006 21.088 76.8173 21.3353 77.4426 21.83C78.0773 22.3153 78.4273 22.9967 78.4926 23.874H76.3366C76.318 23.538 76.1733 23.2627 75.9026 23.048C75.6413 22.824 75.2913 22.712 74.8526 22.712C74.47 22.712 74.162 22.81 73.9286 23.006C73.7046 23.202 73.5926 23.4867 73.5926 23.86C73.5926 24.1213 73.6766 24.3407 73.8446 24.518C74.022 24.686 74.2366 24.826 74.4886 24.938C74.75 25.0407 75.114 25.162 75.5806 25.302C76.2153 25.4887 76.7333 25.6753 77.1346 25.862C77.536 26.0487 77.8813 26.3287 78.1706 26.702C78.46 27.0753 78.6046 27.5653 78.6046 28.172C78.6046 28.6947 78.4693 29.18 78.1986 29.628C77.928 30.076 77.5313 30.4353 77.0086 30.706C76.486 30.9673 75.8653 31.098 75.1466 31.098ZM88.2039 21.228V22.81H85.5999V31H83.6399V22.81H81.0359V21.228H88.2039ZM95.42 31.098C94.5053 31.098 93.6653 30.8833 92.9 30.454C92.1346 30.0247 91.528 29.432 91.08 28.676C90.632 27.9107 90.408 27.0473 90.408 26.086C90.408 25.134 90.632 24.28 91.08 23.524C91.528 22.7587 92.1346 22.1613 92.9 21.732C93.6653 21.3027 94.5053 21.088 95.42 21.088C96.344 21.088 97.184 21.3027 97.94 21.732C98.7053 22.1613 99.3073 22.7587 99.746 23.524C100.194 24.28 100.418 25.134 100.418 26.086C100.418 27.0473 100.194 27.9107 99.746 28.676C99.3073 29.432 98.7053 30.0247 97.94 30.454C97.1746 30.8833 96.3346 31.098 95.42 31.098ZM95.42 29.348C96.008 29.348 96.526 29.2173 96.974 28.956C97.422 28.6853 97.772 28.3027 98.024 27.808C98.276 27.3133 98.402 26.7393 98.402 26.086C98.402 25.4327 98.276 24.8633 98.024 24.378C97.772 23.8833 97.422 23.5053 96.974 23.244C96.526 22.9827 96.008 22.852 95.42 22.852C94.832 22.852 94.3093 22.9827 93.852 23.244C93.404 23.5053 93.054 23.8833 92.802 24.378C92.55 24.8633 92.424 25.4327 92.424 26.086C92.424 26.7393 92.55 27.3133 92.802 27.808C93.054 28.3027 93.404 28.6853 93.852 28.956C94.3093 29.2173 94.832 29.348 95.42 29.348ZM108.166 31L106.01 27.192H105.086V31H103.126V21.228H106.794C107.55 21.228 108.194 21.3633 108.726 21.634C109.258 21.8953 109.655 22.2547 109.916 22.712C110.187 23.16 110.322 23.664 110.322 24.224C110.322 24.868 110.135 25.4513 109.762 25.974C109.389 26.4873 108.833 26.842 108.096 27.038L110.434 31H108.166ZM105.086 25.722H106.724C107.256 25.722 107.653 25.596 107.914 25.344C108.175 25.0827 108.306 24.7233 108.306 24.266C108.306 23.818 108.175 23.4727 107.914 23.23C107.653 22.978 107.256 22.852 106.724 22.852H105.086V25.722ZM115.305 22.81V25.26H118.595V26.814H115.305V29.404H119.015V31H113.345V21.214H119.015V22.81H115.305Z" fill="url(#paint1_linear_5148_5114)"/>
<defs>
<linearGradient id="paint0_linear_5148_5114" x1="0" y1="0" x2="114.089" y2="107.567" gradientUnits="userSpaceOnUse">
<stop stop-color="#9E37FF"/>
<stop offset="1" stop-color="#F237FF"/>
</linearGradient>
<linearGradient id="paint1_linear_5148_5114" x1="40" y1="16" x2="84.6085" y2="69.0736" gradientUnits="userSpaceOnUse">
<stop stop-color="#9E37FF"/>
<stop offset="1" stop-color="#F237FF"/>
</linearGradient>
</defs>
</svg>
