<svg width="20" height="20" viewBox="0 0 20 20" fill="none" xmlns="http://www.w3.org/2000/svg">
<path d="M8.9604 18.75H11.0604C11.8604 18.75 12.3771 18.1833 12.2271 17.4917L11.8854 15.9834H8.1354L7.79373 17.4917C7.64373 18.1417 8.2104 18.75 8.9604 18.75Z" stroke="white" stroke-width="1.5" stroke-linecap="round" stroke-linejoin="round"/>
<path d="M11.8851 15.9752L13.3268 14.6918C14.1351 13.9751 14.1684 13.4751 13.5268 12.6667L10.9851 9.4418C10.4518 8.7668 9.57675 8.7668 9.04342 9.4418L6.50176 12.6667C5.86009 13.4751 5.86009 14.0001 6.70175 14.6918L8.14342 15.9752" stroke="white" stroke-width="1.5" stroke-linecap="round" stroke-linejoin="round"/>
<path d="M10.0117 9.2666V11.375" stroke="white" stroke-width="1.5" stroke-linecap="round" stroke-linejoin="round"/>
<path d="M9.29141 4.32488L8.64141 3.67485C8.24974 3.28319 8.24974 2.64989 8.64141 2.25823L9.29141 1.6082C9.68307 1.21654 10.3164 1.21654 10.7081 1.6082L11.3581 2.25823C11.7497 2.64989 11.7497 3.28319 11.3581 3.67485L10.7081 4.32488C10.3164 4.71654 9.68307 4.71654 9.29141 4.32488Z" stroke="white" stroke-width="1.5" stroke-linecap="round" stroke-linejoin="round"/>
<path d="M16.207 8.1748H17.1237C17.6737 8.1748 18.1237 8.62481 18.1237 9.17481V10.0915C18.1237 10.6415 17.6737 11.0915 17.1237 11.0915H16.207C15.657 11.0915 15.207 10.6415 15.207 10.0915V9.17481C15.207 8.62481 15.657 8.1748 16.207 8.1748Z" stroke="white" stroke-width="1.5" stroke-linecap="round" stroke-linejoin="round"/>
<path d="M3.79167 8.1748H2.875C2.325 8.1748 1.875 8.62481 1.875 9.17481V10.0915C1.875 10.6415 2.325 11.0915 2.875 11.0915H3.79167C4.34167 11.0915 4.79167 10.6415 4.79167 10.0915V9.17481C4.79167 8.62481 4.34167 8.1748 3.79167 8.1748Z" stroke="white" stroke-width="1.5" stroke-linecap="round" stroke-linejoin="round"/>
<path d="M15.4518 8.41666L11.0352 4" stroke="white" stroke-width="1.5" stroke-linecap="round" stroke-linejoin="round"/>
<path d="M4.55078 8.41666L8.96745 4" stroke="white" stroke-width="1.5" stroke-linecap="round" stroke-linejoin="round"/>
</svg>
