<svg width="392" height="54" viewBox="0 0 392 54" fill="none" xmlns="http://www.w3.org/2000/svg">
<rect x="0.5" y="1.14648" width="391" height="52" fill="white"/>
<rect x="0.5" y="1.14648" width="391" height="52" stroke="url(#paint0_linear_142_1981)"/>
<path d="M120.382 21.8745C121.409 21.8745 122.309 22.0752 123.084 22.4765C123.868 22.8778 124.47 23.4518 124.89 24.1985C125.319 24.9358 125.534 25.7945 125.534 26.7745C125.534 27.7545 125.319 28.6132 124.89 29.3505C124.47 30.0785 123.868 30.6432 123.084 31.0445C122.309 31.4458 121.409 31.6465 120.382 31.6465H116.966V21.8745H120.382ZM120.312 29.9805C121.339 29.9805 122.132 29.7005 122.692 29.1405C123.252 28.5805 123.532 27.7918 123.532 26.7745C123.532 25.7572 123.252 24.9638 122.692 24.3945C122.132 23.8158 121.339 23.5265 120.312 23.5265H118.926V29.9805H120.312ZM132.787 31.7445C131.872 31.7445 131.032 31.5298 130.267 31.1005C129.502 30.6712 128.895 30.0785 128.447 29.3225C127.999 28.5572 127.775 27.6938 127.775 26.7325C127.775 25.7805 127.999 24.9265 128.447 24.1705C128.895 23.4052 129.502 22.8078 130.267 22.3785C131.032 21.9492 131.872 21.7345 132.787 21.7345C133.711 21.7345 134.551 21.9492 135.307 22.3785C136.072 22.8078 136.674 23.4052 137.113 24.1705C137.561 24.9265 137.785 25.7805 137.785 26.7325C137.785 27.6938 137.561 28.5572 137.113 29.3225C136.674 30.0785 136.072 30.6712 135.307 31.1005C134.542 31.5298 133.702 31.7445 132.787 31.7445ZM132.787 29.9945C133.375 29.9945 133.893 29.8638 134.341 29.6025C134.789 29.3318 135.139 28.9492 135.391 28.4545C135.643 27.9598 135.769 27.3858 135.769 26.7325C135.769 26.0792 135.643 25.5098 135.391 25.0245C135.139 24.5298 134.789 24.1518 134.341 23.8905C133.893 23.6292 133.375 23.4985 132.787 23.4985C132.199 23.4985 131.676 23.6292 131.219 23.8905C130.771 24.1518 130.421 24.5298 130.169 25.0245C129.917 25.5098 129.791 26.0792 129.791 26.7325C129.791 27.3858 129.917 27.9598 130.169 28.4545C130.421 28.9492 130.771 29.3318 131.219 29.6025C131.676 29.8638 132.199 29.9945 132.787 29.9945ZM153.555 21.8745L150.825 31.6465H148.515L146.681 24.6885L144.763 31.6465L142.467 31.6605L139.835 21.8745H141.935L143.657 29.4625L145.645 21.8745H147.829L149.705 29.4205L151.441 21.8745H153.555ZM164.443 31.6465H162.483L158.045 24.9405V31.6465H156.085V21.8605H158.045L162.483 28.5805V21.8605H164.443V31.6465ZM169.59 30.0925H172.81V31.6465H167.63V21.8745H169.59V30.0925ZM179.842 31.7445C178.927 31.7445 178.087 31.5298 177.322 31.1005C176.557 30.6712 175.95 30.0785 175.502 29.3225C175.054 28.5572 174.83 27.6938 174.83 26.7325C174.83 25.7805 175.054 24.9265 175.502 24.1705C175.95 23.4052 176.557 22.8078 177.322 22.3785C178.087 21.9492 178.927 21.7345 179.842 21.7345C180.766 21.7345 181.606 21.9492 182.362 22.3785C183.127 22.8078 183.729 23.4052 184.168 24.1705C184.616 24.9265 184.84 25.7805 184.84 26.7325C184.84 27.6938 184.616 28.5572 184.168 29.3225C183.729 30.0785 183.127 30.6712 182.362 31.1005C181.597 31.5298 180.757 31.7445 179.842 31.7445ZM179.842 29.9945C180.43 29.9945 180.948 29.8638 181.396 29.6025C181.844 29.3318 182.194 28.9492 182.446 28.4545C182.698 27.9598 182.824 27.3858 182.824 26.7325C182.824 26.0792 182.698 25.5098 182.446 25.0245C182.194 24.5298 181.844 24.1518 181.396 23.8905C180.948 23.6292 180.43 23.4985 179.842 23.4985C179.254 23.4985 178.731 23.6292 178.274 23.8905C177.826 24.1518 177.476 24.5298 177.224 25.0245C176.972 25.5098 176.846 26.0792 176.846 26.7325C176.846 27.3858 176.972 27.9598 177.224 28.4545C177.476 28.9492 177.826 29.3318 178.274 29.6025C178.731 29.8638 179.254 29.9945 179.842 29.9945ZM193.54 29.7845H189.648L189.004 31.6465H186.946L190.46 21.8605H192.742L196.256 31.6465H194.184L193.54 29.7845ZM193.008 28.2165L191.594 24.1285L190.18 28.2165H193.008ZM202.236 21.8745C203.262 21.8745 204.163 22.0752 204.938 22.4765C205.722 22.8778 206.324 23.4518 206.744 24.1985C207.173 24.9358 207.388 25.7945 207.388 26.7745C207.388 27.7545 207.173 28.6132 206.744 29.3505C206.324 30.0785 205.722 30.6432 204.938 31.0445C204.163 31.4458 203.262 31.6465 202.236 31.6465H198.82V21.8745H202.236ZM202.166 29.9805C203.192 29.9805 203.986 29.7005 204.546 29.1405C205.106 28.5805 205.386 27.7918 205.386 26.7745C205.386 25.7572 205.106 24.9638 204.546 24.3945C203.986 23.8158 203.192 23.5265 202.166 23.5265H200.78V29.9805H202.166ZM220.683 29.7845H216.791L216.147 31.6465H214.089L217.603 21.8605H219.885L223.399 31.6465H221.327L220.683 29.7845ZM220.151 28.2165L218.737 24.1285L217.323 28.2165H220.151ZM233.088 24.8985C233.088 25.4212 232.962 25.9112 232.71 26.3685C232.467 26.8258 232.08 27.1945 231.548 27.4745C231.025 27.7545 230.363 27.8945 229.56 27.8945H227.922V31.6465H225.962V21.8745H229.56C230.316 21.8745 230.96 22.0052 231.492 22.2665C232.024 22.5278 232.421 22.8872 232.682 23.3445C232.953 23.8018 233.088 24.3198 233.088 24.8985ZM229.476 26.3125C230.017 26.3125 230.419 26.1912 230.68 25.9485C230.941 25.6965 231.072 25.3465 231.072 24.8985C231.072 23.9465 230.54 23.4705 229.476 23.4705H227.922V26.3125H229.476ZM242.856 24.8985C242.856 25.4212 242.73 25.9112 242.478 26.3685C242.235 26.8258 241.848 27.1945 241.316 27.4745C240.793 27.7545 240.13 27.8945 239.328 27.8945H237.69V31.6465H235.73V21.8745H239.328C240.084 21.8745 240.728 22.0052 241.26 22.2665C241.792 22.5278 242.188 22.8872 242.45 23.3445C242.72 23.8018 242.856 24.3198 242.856 24.8985ZM239.244 26.3125C239.785 26.3125 240.186 26.1912 240.448 25.9485C240.709 25.6965 240.84 25.3465 240.84 24.8985C240.84 23.9465 240.308 23.4705 239.244 23.4705H237.69V26.3125H239.244Z" fill="url(#paint1_linear_142_1981)"/>
<path d="M268.025 22.0879L273.084 27.1462L268.025 32.2046" stroke="url(#paint2_linear_142_1981)" stroke-width="1.5" stroke-miterlimit="10" stroke-linecap="round" stroke-linejoin="round"/>
<path d="M258.916 27.1465H272.941" stroke="url(#paint3_linear_142_1981)" stroke-width="1.5" stroke-miterlimit="10" stroke-linecap="round" stroke-linejoin="round"/>
<defs>
<linearGradient id="paint0_linear_142_1981" x1="0" y1="0.646484" x2="83.3347" y2="193.144" gradientUnits="userSpaceOnUse">
<stop stop-color="#9E37FF"/>
<stop offset="1" stop-color="#F237FF"/>
</linearGradient>
<linearGradient id="paint1_linear_142_1981" x1="116" y1="16.6465" x2="153.287" y2="87.6264" gradientUnits="userSpaceOnUse">
<stop stop-color="#9E37FF"/>
<stop offset="1" stop-color="#F237FF"/>
</linearGradient>
<linearGradient id="paint2_linear_142_1981" x1="268.025" y1="22.0879" x2="274.676" y2="23.1265" gradientUnits="userSpaceOnUse">
<stop stop-color="#9E37FF"/>
<stop offset="1" stop-color="#F237FF"/>
</linearGradient>
<linearGradient id="paint3_linear_142_1981" x1="258.916" y1="27.1465" x2="259.852" y2="31.2456" gradientUnits="userSpaceOnUse">
<stop stop-color="#9E37FF"/>
<stop offset="1" stop-color="#F237FF"/>
</linearGradient>
</defs>
</svg>
