<svg width="24" height="24" viewBox="0 0 24 24" fill="none" xmlns="http://www.w3.org/2000/svg">
<g clip-path="url(#clip0_5203_7348)">
<path fill-rule="evenodd" clip-rule="evenodd" d="M2.90344 1.92879C2.37448 1.92879 1.94344 2.35983 1.94344 2.88879V20.1688C1.94344 20.6978 2.37448 21.1288 2.90344 21.1288H20.1834C20.7124 21.1288 21.1434 20.6978 21.1434 20.1688V2.88879C21.1434 2.35983 20.7124 1.92879 20.1834 1.92879H2.90344ZM20.1834 23.0488H2.90344C1.3156 23.0488 0.0234375 21.7566 0.0234375 20.1688V2.88879C0.0234375 1.30095 1.3156 0.00878906 2.90344 0.00878906H20.1834C21.7713 0.00878906 23.0634 1.30095 23.0634 2.88879V20.1688C23.0634 21.7566 21.7713 23.0488 20.1834 23.0488Z" fill="url(#paint0_linear_5203_7348)"/>
<path fill-rule="evenodd" clip-rule="evenodd" d="M15.3831 23.0487C14.8532 23.0487 14.4231 22.6186 14.4231 22.0887V14.4087C14.4231 13.8788 14.8532 13.4487 15.3831 13.4487H17.3031V11.5287H15.3831C14.8532 11.5287 14.4231 11.0986 14.4231 10.5687V9.60867C14.4231 8.02083 15.7153 6.72867 17.3031 6.72867H18.2631V4.80867H17.3031C14.6564 4.80867 12.5031 6.96195 12.5031 9.60867V10.5687C12.5031 11.0986 12.073 11.5287 11.5431 11.5287H9.62313V13.4487H11.5431C12.073 13.4487 12.5031 13.8788 12.5031 14.4087V22.0887C12.5031 22.6186 12.073 23.0487 11.5431 23.0487C11.0132 23.0487 10.5831 22.6186 10.5831 22.0887V15.3687H8.66313C8.13321 15.3687 7.70312 14.9386 7.70312 14.4087V10.5687C7.70312 10.0388 8.13321 9.60867 8.66313 9.60867H10.5831C10.5831 5.90307 13.5975 2.88867 17.3031 2.88867H19.2231C19.753 2.88867 20.1831 3.31875 20.1831 3.84867V7.68867C20.1831 8.21859 19.753 8.64867 19.2231 8.64867H17.3031C16.7742 8.64867 16.3431 9.07971 16.3431 9.60867H18.2631C18.793 9.60867 19.2231 10.0388 19.2231 10.5687V14.4087C19.2231 14.9386 18.793 15.3687 18.2631 15.3687H16.3431V22.0887C16.3431 22.6186 15.913 23.0487 15.3831 23.0487Z" fill="url(#paint1_linear_5203_7348)"/>
</g>
<defs>
<linearGradient id="paint0_linear_5203_7348" x1="11.5434" y1="0.00878906" x2="11.5434" y2="23.0488" gradientUnits="userSpaceOnUse">
<stop stop-color="#9E37FF"/>
<stop offset="1" stop-color="#F237FF"/>
</linearGradient>
<linearGradient id="paint1_linear_5203_7348" x1="13.9431" y1="2.88867" x2="13.9431" y2="23.0487" gradientUnits="userSpaceOnUse">
<stop stop-color="#9E37FF"/>
<stop offset="1" stop-color="#F237FF"/>
</linearGradient>
<clipPath id="clip0_5203_7348">
<rect width="24" height="24" fill="white"/>
</clipPath>
</defs>
</svg>
