<svg width="54" height="55" viewBox="0 0 54 55" fill="none" xmlns="http://www.w3.org/2000/svg">
<rect width="54" height="55" fill="#454545"/>
<rect x="0.75" y="1.43066" width="52.5" height="52.5" rx="3.25" fill="url(#paint0_linear_1_862)"/>
<rect x="0.75" y="1.43066" width="52.5" height="52.5" rx="3.25" stroke="url(#paint1_linear_1_862)" stroke-width="1.5"/>
<path d="M36.5992 25.8807H27.1992V29.5807H32.6992C32.5992 30.4807 31.9992 31.8807 30.6992 32.7807C29.8992 33.3807 28.6992 33.7807 27.1992 33.7807C24.5992 33.7807 22.2992 32.0807 21.4992 29.5807C21.2992 28.9807 21.1992 28.2807 21.1992 27.5807C21.1992 26.8807 21.2992 26.1807 21.4992 25.5807C21.5992 25.3807 21.5992 25.1807 21.6992 25.0807C22.5992 22.9807 24.6992 21.4807 27.1992 21.4807C29.0992 21.4807 30.2992 22.2807 31.0992 22.9807L33.8992 20.1807C32.1992 18.6807 29.8992 17.6807 27.1992 17.6807C23.2992 17.6807 19.8992 19.8807 18.2992 23.1807C17.5992 24.5807 17.1992 26.0807 17.1992 27.6807C17.1992 29.2807 17.5992 30.7807 18.2992 32.1807C19.8992 35.4807 23.2992 37.6807 27.1992 37.6807C29.8992 37.6807 32.1992 36.7807 33.7992 35.2807C35.6992 33.5807 36.7992 30.9807 36.7992 27.8807C36.7992 27.0807 36.6992 26.4807 36.5992 25.8807Z" stroke="white" stroke-width="1.5" stroke-miterlimit="10" stroke-linecap="round" stroke-linejoin="round"/>
<defs>
<linearGradient id="paint0_linear_1_862" x1="-7.12687e-07" y1="0.396485" x2="51.5" y2="54.3965" gradientUnits="userSpaceOnUse">
<stop stop-color="#9E37FF"/>
<stop offset="1" stop-color="#F237FF"/>
</linearGradient>
<linearGradient id="paint1_linear_1_862" x1="0" y1="0.680664" x2="66.2697" y2="21.3775" gradientUnits="userSpaceOnUse">
<stop stop-color="#9E37FF"/>
<stop offset="1" stop-color="#F237FF"/>
</linearGradient>
</defs>
</svg>
