<svg width="54" height="54" viewBox="0 0 54 54" fill="none" xmlns="http://www.w3.org/2000/svg">
<rect x="0.75" y="0.75" width="52.5" height="52.5" rx="3.25" stroke="url(#paint0_linear_5323_7108)" stroke-width="1.5"/>
<path d="M36.5992 25.2H27.1992V28.9H32.6992C32.5992 29.8 31.9992 31.2 30.6992 32.1C29.8992 32.7 28.6992 33.1 27.1992 33.1C24.5992 33.1 22.2992 31.4 21.4992 28.9C21.2992 28.3 21.1992 27.6 21.1992 26.9C21.1992 26.2 21.2992 25.5 21.4992 24.9C21.5992 24.7 21.5992 24.5 21.6992 24.4C22.5992 22.3 24.6992 20.8 27.1992 20.8C29.0992 20.8 30.2992 21.6 31.0992 22.3L33.8992 19.5C32.1992 18 29.8992 17 27.1992 17C23.2992 17 19.8992 19.2 18.2992 22.5C17.5992 23.9 17.1992 25.4 17.1992 27C17.1992 28.6 17.5992 30.1 18.2992 31.5C19.8992 34.8 23.2992 37 27.1992 37C29.8992 37 32.1992 36.1 33.7992 34.6C35.6992 32.9 36.7992 30.3 36.7992 27.2C36.7992 26.4 36.6992 25.8 36.5992 25.2Z" stroke="url(#paint1_linear_5323_7108)" stroke-width="1.5" stroke-miterlimit="10" stroke-linecap="round" stroke-linejoin="round"/>
<defs>
<linearGradient id="paint0_linear_5323_7108" x1="0" y1="0" x2="66.2697" y2="20.6969" gradientUnits="userSpaceOnUse">
<stop stop-color="#9E37FF"/>
<stop offset="1" stop-color="#F237FF"/>
</linearGradient>
<linearGradient id="paint1_linear_5323_7108" x1="17.1992" y1="17" x2="41.3376" y2="24.388" gradientUnits="userSpaceOnUse">
<stop stop-color="#9E37FF"/>
<stop offset="1" stop-color="#F237FF"/>
</linearGradient>
</defs>
</svg>
