<svg width="54" height="55" viewBox="0 0 54 55" fill="none" xmlns="http://www.w3.org/2000/svg">
<rect x="0.75" y="1.43066" width="52.5" height="52.5" rx="3.25" fill="url(#paint0_linear_5323_7172)"/>
<rect x="0.75" y="1.43066" width="52.5" height="52.5" rx="3.25" stroke="url(#paint1_linear_5323_7172)" stroke-width="1.5"/>
<g clip-path="url(#clip0_5323_7172)">
<path fill-rule="evenodd" clip-rule="evenodd" d="M20.3486 21.8863C20.5661 21.9065 20.7665 21.8179 20.9128 21.6869C21.0654 21.5501 21.1492 21.3658 21.15 21.1685C21.15 20.9777 21.0686 20.797 20.9199 20.6595C20.772 20.5219 20.5787 20.4463 20.3744 20.4463C20.1654 20.4463 19.9659 20.5219 19.8156 20.6587C19.6669 20.7948 19.5847 20.9748 19.5847 21.1649C19.5847 21.3629 19.6701 21.5487 19.8234 21.6869C19.9682 21.8172 20.1819 21.9051 20.3486 21.8863ZM20.3979 23.3263C20.365 23.3271 20.3337 23.3271 20.304 23.3263C19.7444 23.3263 19.1598 23.1053 18.7286 22.7158C18.2715 22.3039 18.0195 21.7531 18.0195 21.1649C18.0195 20.5882 18.2661 20.046 18.7129 19.6371C19.1582 19.231 19.7475 19.0063 20.3736 19.0063H20.376C20.9989 19.0071 21.5867 19.2331 22.0296 19.6443C22.4734 20.0547 22.716 20.5968 22.7152 21.1714C22.7136 21.7603 22.4616 22.309 22.0046 22.7187C21.5718 23.1067 20.9887 23.3263 20.3979 23.3263ZM19.5851 34.8467H21.1504V25.4867H19.5851V34.8467ZM21.933 36.2867H18.8025C18.3697 36.2867 18.0199 35.9641 18.0199 35.5667V24.7667C18.0199 24.3693 18.3697 24.0467 18.8025 24.0467H21.933C22.3657 24.0467 22.7156 24.3693 22.7156 24.7667V35.5667C22.7156 35.9641 22.3657 36.2867 21.933 36.2867ZM32.1106 34.8467H33.6759V28.1183C33.6759 26.44 32.3697 25.1742 30.6378 25.1742H30.0125C29.251 25.1742 28.4864 25.4586 27.9683 25.936C27.7445 26.1412 27.4079 26.2031 27.1152 26.0915C26.8225 25.9799 26.6324 25.7171 26.6324 25.4262V24.7645L25.057 24.766V24.7732H25.0632L25.0672 34.8453L26.6324 34.846V29.4467C26.6324 28.0571 27.8611 26.9267 29.3715 26.9267C30.8819 26.9267 32.1106 28.0571 32.1106 29.4467V34.8467ZM27.415 36.2867L24.2838 36.2845C23.8518 36.2845 23.5019 35.962 23.5019 35.5653L23.498 24.7739C23.498 24.7588 23.4988 24.7437 23.4996 24.7285C23.5004 24.6753 23.5012 24.5169 23.5019 24.0453C23.5027 23.6485 23.8518 23.3267 24.2838 23.3267L27.4142 23.3231C27.6216 23.3231 27.8219 23.3987 27.9683 23.5341C28.1154 23.6687 28.1976 23.8516 28.1976 24.0431V24.0834C28.7634 23.8559 29.3832 23.7342 30.0125 23.7342H30.6378C33.2188 23.7342 35.2411 25.6602 35.2411 28.1183V35.5667C35.2411 35.9641 34.8912 36.2867 34.4585 36.2867H31.328C30.8952 36.2867 30.5454 35.9641 30.5454 35.5667V29.4467C30.5454 28.8513 30.0187 28.3667 29.3715 28.3667C28.7243 28.3667 28.1976 28.8513 28.1976 29.4467V35.5667C28.1976 35.7575 28.1154 35.9411 27.9683 36.0765C27.8219 36.2111 27.6224 36.2867 27.415 36.2867Z" fill="white"/>
</g>
<defs>
<linearGradient id="paint0_linear_5323_7172" x1="-4.59903e-07" y1="5.89648" x2="54" y2="54.3965" gradientUnits="userSpaceOnUse">
<stop offset="0.0653701" stop-color="#9E37FF"/>
<stop offset="1" stop-color="#F237FF"/>
</linearGradient>
<linearGradient id="paint1_linear_5323_7172" x1="0" y1="0.680664" x2="66.2697" y2="21.3775" gradientUnits="userSpaceOnUse">
<stop stop-color="#9E37FF"/>
<stop offset="1" stop-color="#F237FF"/>
</linearGradient>
<clipPath id="clip0_5323_7172">
<rect width="18" height="18" fill="white" transform="translate(18 19)"/>
</clipPath>
</defs>
</svg>
