<svg width="54" height="54" viewBox="0 0 54 54" fill="none" xmlns="http://www.w3.org/2000/svg">
<rect x="0.75" y="0.75" width="52.5" height="52.5" rx="3.25" stroke="url(#paint0_linear_5323_7164)" stroke-width="1.5"/>
<g clip-path="url(#clip0_5323_7164)">
<path fill-rule="evenodd" clip-rule="evenodd" d="M20.3486 20.8863C20.5661 20.9065 20.7665 20.8179 20.9128 20.6869C21.0654 20.5501 21.1492 20.3658 21.15 20.1685C21.15 19.9777 21.0686 19.797 20.9199 19.6595C20.772 19.5219 20.5787 19.4463 20.3744 19.4463C20.1654 19.4463 19.9659 19.5219 19.8156 19.6587C19.6669 19.7948 19.5847 19.9748 19.5847 20.1649C19.5847 20.3629 19.6701 20.5487 19.8234 20.6869C19.9682 20.8172 20.1819 20.9051 20.3486 20.8863ZM20.3979 22.3263C20.365 22.3271 20.3337 22.3271 20.304 22.3263C19.7444 22.3263 19.1598 22.1053 18.7286 21.7158C18.2715 21.3039 18.0195 20.7531 18.0195 20.1649C18.0195 19.5882 18.2661 19.046 18.7129 18.6371C19.1582 18.231 19.7475 18.0063 20.3736 18.0063H20.376C20.9989 18.0071 21.5867 18.2331 22.0296 18.6443C22.4734 19.0547 22.716 19.5968 22.7152 20.1714C22.7136 20.7603 22.4616 21.309 22.0046 21.7187C21.5718 22.1067 20.9887 22.3263 20.3979 22.3263ZM19.5851 33.8467H21.1504V24.4867H19.5851V33.8467ZM21.933 35.2867H18.8025C18.3697 35.2867 18.0199 34.9641 18.0199 34.5667V23.7667C18.0199 23.3693 18.3697 23.0467 18.8025 23.0467H21.933C22.3657 23.0467 22.7156 23.3693 22.7156 23.7667V34.5667C22.7156 34.9641 22.3657 35.2867 21.933 35.2867ZM32.1106 33.8467H33.6759V27.1183C33.6759 25.44 32.3697 24.1742 30.6378 24.1742H30.0125C29.251 24.1742 28.4864 24.4586 27.9683 24.936C27.7445 25.1412 27.4079 25.2031 27.1152 25.0915C26.8225 24.9799 26.6324 24.7171 26.6324 24.4262V23.7645L25.057 23.766V23.7732H25.0632L25.0672 33.8453L26.6324 33.846V28.4467C26.6324 27.0571 27.8611 25.9267 29.3715 25.9267C30.8819 25.9267 32.1106 27.0571 32.1106 28.4467V33.8467ZM27.415 35.2867L24.2838 35.2845C23.8518 35.2845 23.5019 34.962 23.5019 34.5653L23.498 23.7739C23.498 23.7588 23.4988 23.7437 23.4996 23.7285C23.5004 23.6753 23.5012 23.5169 23.5019 23.0453C23.5027 22.6485 23.8518 22.3267 24.2838 22.3267L27.4142 22.3231C27.6216 22.3231 27.8219 22.3987 27.9683 22.5341C28.1154 22.6687 28.1976 22.8516 28.1976 23.0431V23.0834C28.7634 22.8559 29.3832 22.7342 30.0125 22.7342H30.6378C33.2188 22.7342 35.2411 24.6602 35.2411 27.1183V34.5667C35.2411 34.9641 34.8912 35.2867 34.4585 35.2867H31.328C30.8952 35.2867 30.5454 34.9641 30.5454 34.5667V28.4467C30.5454 27.8513 30.0187 27.3667 29.3715 27.3667C28.7243 27.3667 28.1976 27.8513 28.1976 28.4467V34.5667C28.1976 34.7575 28.1154 34.9411 27.9683 35.0765C27.8219 35.2111 27.6224 35.2867 27.415 35.2867Z" fill="url(#paint1_linear_5323_7164)"/>
</g>
<defs>
<linearGradient id="paint0_linear_5323_7164" x1="0" y1="0" x2="66.2697" y2="20.6969" gradientUnits="userSpaceOnUse">
<stop stop-color="#9E37FF"/>
<stop offset="1" stop-color="#F237FF"/>
</linearGradient>
<linearGradient id="paint1_linear_5323_7164" x1="18.0195" y1="26.4092" x2="35.2411" y2="26.8838" gradientUnits="userSpaceOnUse">
<stop stop-color="#9E37FF"/>
<stop offset="1" stop-color="#F237FF"/>
</linearGradient>
<clipPath id="clip0_5323_7164">
<rect width="18" height="18" fill="white" transform="translate(18 18)"/>
</clipPath>
</defs>
</svg>
