<svg width="24" height="24" viewBox="0 0 24 24" fill="none" xmlns="http://www.w3.org/2000/svg">
<path fill-rule="evenodd" clip-rule="evenodd" d="M3.13273 3.84781C3.42282 3.87469 3.68995 3.75661 3.88508 3.58189C4.08856 3.39949 4.20021 3.15373 4.20126 2.89069C4.20126 2.63629 4.09273 2.39533 3.89447 2.21197C3.69726 2.02861 3.43952 1.92781 3.16717 1.92781C2.88856 1.92781 2.62247 2.02861 2.42213 2.21101C2.22387 2.39245 2.1143 2.63245 2.1143 2.88589C2.1143 3.14989 2.22804 3.39757 2.43256 3.58189C2.6256 3.75565 2.91047 3.87277 3.13273 3.84781ZM3.19847 5.76781C3.15465 5.76877 3.11291 5.76877 3.07326 5.76781C2.32717 5.76781 1.54769 5.47309 0.972735 4.95373C0.363344 4.40461 0.0273438 3.67021 0.0273438 2.88589C0.0273438 2.11693 0.356039 1.39405 0.951865 0.848773C1.5456 0.307333 2.33134 0.0078125 3.16613 0.0078125H3.16926C3.99987 0.0087725 4.78352 0.310213 5.37413 0.858373C5.96578 1.40557 6.28926 2.12845 6.28821 2.89453C6.28613 3.67981 5.95013 4.41133 5.34073 4.95757C4.76369 5.47501 3.9863 5.76781 3.19847 5.76781ZM2.11482 21.1283H4.20178V8.64829H2.11482V21.1283ZM5.24526 23.0483H1.07134C0.4943 23.0483 0.0278655 22.6182 0.0278655 22.0883V7.68829C0.0278655 7.15837 0.4943 6.72829 1.07134 6.72829H5.24526C5.8223 6.72829 6.28874 7.15837 6.28874 7.68829V22.0883C6.28874 22.6182 5.8223 23.0483 5.24526 23.0483ZM18.8155 21.1283H20.9024V12.1571C20.9024 9.91933 19.1609 8.23165 16.8517 8.23165H16.0179C15.0026 8.23165 13.9831 8.61085 13.2924 9.24733C12.9939 9.52093 12.5452 9.60349 12.155 9.45469C11.7647 9.30589 11.5111 8.95549 11.5111 8.56765V7.68541L9.41061 7.68733V7.69693H9.41896L9.42418 21.1264L11.5111 21.1273V13.9283C11.5111 12.0755 13.1494 10.5683 15.1633 10.5683C17.1772 10.5683 18.8155 12.0755 18.8155 13.9283V21.1283ZM12.5546 23.0483L8.37966 23.0454C7.80366 23.0454 7.33722 22.6153 7.33722 22.0864L7.33201 7.69789C7.33201 7.67773 7.33305 7.65757 7.33409 7.63741C7.33514 7.56637 7.33618 7.35517 7.33722 6.72637C7.33827 6.19741 7.80366 5.76829 8.37966 5.76829L12.5536 5.76349C12.8301 5.76349 13.0972 5.86429 13.2924 6.04477C13.4885 6.22429 13.5981 6.46813 13.5981 6.72349V6.77725C14.3525 6.47389 15.179 6.31165 16.0179 6.31165H16.8517C20.293 6.31165 22.9894 8.87965 22.9894 12.1571V22.0883C22.9894 22.6182 22.523 23.0483 21.9459 23.0483H17.772C17.195 23.0483 16.7285 22.6182 16.7285 22.0883V13.9283C16.7285 13.1344 16.0263 12.4883 15.1633 12.4883C14.3004 12.4883 13.5981 13.1344 13.5981 13.9283V22.0883C13.5981 22.3427 13.4885 22.5875 13.2924 22.768C13.0972 22.9475 12.8311 23.0483 12.5546 23.0483Z" fill="white"/>
</svg>
