<svg width="54" height="54" viewBox="0 0 54 54" fill="none" xmlns="http://www.w3.org/2000/svg">
<rect x="0.75" y="0.75" width="52.5" height="52.5" rx="3.25" stroke="url(#paint0_linear_5323_7112)" stroke-width="1.5"/>
<path d="M22.5556 17C19.4922 17 17 19.4922 17 22.5556V31.4444C17 34.5078 19.4922 37 22.5556 37H31.4444C34.5078 37 37 34.5078 37 31.4444V22.5556C37 19.4922 34.5078 17 31.4444 17H22.5556ZM22.5556 19.2222H31.4444C33.2822 19.2222 34.7778 20.7178 34.7778 22.5556V31.4444C34.7778 33.2822 33.2822 34.7778 31.4444 34.7778H22.5556C20.7178 34.7778 19.2222 33.2822 19.2222 31.4444V22.5556C19.2222 20.7178 20.7178 19.2222 22.5556 19.2222ZM32.5556 20.3333C32.2609 20.3333 31.9783 20.4504 31.7699 20.6588C31.5615 20.8671 31.4444 21.1498 31.4444 21.4444C31.4444 21.7391 31.5615 22.0217 31.7699 22.2301C31.9783 22.4385 32.2609 22.5556 32.5556 22.5556C32.8502 22.5556 33.1329 22.4385 33.3412 22.2301C33.5496 22.0217 33.6667 21.7391 33.6667 21.4444C33.6667 21.1498 33.5496 20.8671 33.3412 20.6588C33.1329 20.4504 32.8502 20.3333 32.5556 20.3333ZM27 21.4444C23.9367 21.4444 21.4444 23.9367 21.4444 27C21.4444 30.0633 23.9367 32.5556 27 32.5556C30.0633 32.5556 32.5556 30.0633 32.5556 27C32.5556 23.9367 30.0633 21.4444 27 21.4444ZM27 23.6667C28.8378 23.6667 30.3333 25.1622 30.3333 27C30.3333 28.8378 28.8378 30.3333 27 30.3333C25.1622 30.3333 23.6667 28.8378 23.6667 27C23.6667 25.1622 25.1622 23.6667 27 23.6667Z" fill="url(#paint1_linear_5323_7112)"/>
<defs>
<linearGradient id="paint0_linear_5323_7112" x1="0" y1="0" x2="66.2697" y2="20.6969" gradientUnits="userSpaceOnUse">
<stop stop-color="#9E37FF"/>
<stop offset="1" stop-color="#F237FF"/>
</linearGradient>
<linearGradient id="paint1_linear_5323_7112" x1="37" y1="26.8482" x2="17" y2="27.1518" gradientUnits="userSpaceOnUse">
<stop stop-color="#F237FF"/>
<stop offset="1" stop-color="#9E37FF"/>
</linearGradient>
</defs>
</svg>
