<svg width="54" height="55" viewBox="0 0 54 55" fill="none" xmlns="http://www.w3.org/2000/svg">
<rect x="0.75" y="1.43066" width="52.5" height="52.5" rx="3.25" fill="url(#paint0_linear_5323_7103)"/>
<rect x="0.75" y="1.43066" width="52.5" height="52.5" rx="3.25" stroke="url(#paint1_linear_5323_7103)" stroke-width="1.5"/>
<path d="M22.5556 18C19.4922 18 17 20.4922 17 23.5556V32.4444C17 35.5078 19.4922 38 22.5556 38H31.4444C34.5078 38 37 35.5078 37 32.4444V23.5556C37 20.4922 34.5078 18 31.4444 18H22.5556ZM22.5556 20.2222H31.4444C33.2822 20.2222 34.7778 21.7178 34.7778 23.5556V32.4444C34.7778 34.2822 33.2822 35.7778 31.4444 35.7778H22.5556C20.7178 35.7778 19.2222 34.2822 19.2222 32.4444V23.5556C19.2222 21.7178 20.7178 20.2222 22.5556 20.2222ZM32.5556 21.3333C32.2609 21.3333 31.9783 21.4504 31.7699 21.6588C31.5615 21.8671 31.4444 22.1498 31.4444 22.4444C31.4444 22.7391 31.5615 23.0217 31.7699 23.2301C31.9783 23.4385 32.2609 23.5556 32.5556 23.5556C32.8502 23.5556 33.1329 23.4385 33.3412 23.2301C33.5496 23.0217 33.6667 22.7391 33.6667 22.4444C33.6667 22.1498 33.5496 21.8671 33.3412 21.6588C33.1329 21.4504 32.8502 21.3333 32.5556 21.3333ZM27 22.4444C23.9367 22.4444 21.4444 24.9367 21.4444 28C21.4444 31.0633 23.9367 33.5556 27 33.5556C30.0633 33.5556 32.5556 31.0633 32.5556 28C32.5556 24.9367 30.0633 22.4444 27 22.4444ZM27 24.6667C28.8378 24.6667 30.3333 26.1622 30.3333 28C30.3333 29.8378 28.8378 31.3333 27 31.3333C25.1622 31.3333 23.6667 29.8378 23.6667 28C23.6667 26.1622 25.1622 24.6667 27 24.6667Z" fill="white"/>
<defs>
<linearGradient id="paint0_linear_5323_7103" x1="6.65691e-08" y1="4.39648" x2="54" y2="54.3965" gradientUnits="userSpaceOnUse">
<stop stop-color="#9E37FF"/>
<stop offset="1" stop-color="#F237FF"/>
</linearGradient>
<linearGradient id="paint1_linear_5323_7103" x1="0" y1="0.680664" x2="66.2697" y2="21.3775" gradientUnits="userSpaceOnUse">
<stop stop-color="#6F3E9D"/>
<stop offset="1" stop-color="#F237FF"/>
</linearGradient>
</defs>
</svg>
