<svg width="20" height="20" viewBox="0 0 20 20" fill="none" xmlns="http://www.w3.org/2000/svg">
<path d="M6.66797 2.33366C7.66797 1.91699 8.83464 1.66699 10.0013 1.66699C14.5846 1.66699 18.3346 5.41699 18.3346 10.0003C18.3346 14.5837 14.5846 18.3337 10.0013 18.3337C5.41797 18.3337 1.66797 14.5837 1.66797 10.0003C1.66797 8.83366 1.91797 7.66699 2.33464 6.66699" stroke="white" stroke-width="1.5" stroke-miterlimit="10" stroke-linecap="round" stroke-linejoin="round"/>
<path d="M13.332 13.5V10C13.332 8.08333 11.7487 6.5 9.83203 6.5C7.91536 6.5 6.33203 8.08333 6.33203 10C6.33203 11.9167 7.91536 13.5 9.83203 13.5H13.332Z" stroke="white" stroke-width="1.5" stroke-miterlimit="10" stroke-linecap="round" stroke-linejoin="round"/>
<path d="M4.16797 5.41699C4.85832 5.41699 5.41797 4.85735 5.41797 4.16699C5.41797 3.47664 4.85832 2.91699 4.16797 2.91699C3.47761 2.91699 2.91797 3.47664 2.91797 4.16699C2.91797 4.85735 3.47761 5.41699 4.16797 5.41699Z" stroke="white" stroke-width="1.5" stroke-miterlimit="10" stroke-linecap="round" stroke-linejoin="round"/>
</svg>
