<svg width="168" height="53" viewBox="0 0 168 53" fill="none" xmlns="http://www.w3.org/2000/svg">
<rect x="0.5" y="0.5" width="167" height="52" fill="white"/>
<rect x="0.5" y="0.5" width="167" height="52" stroke="url(#paint0_linear_5325_7278)"/>
<path d="M48.092 24.252C48.092 24.7747 47.966 25.2647 47.714 25.722C47.4713 26.1793 47.084 26.548 46.552 26.828C46.0293 27.108 45.3667 27.248 44.564 27.248H42.926V31H40.966V21.228H44.564C45.32 21.228 45.964 21.3587 46.496 21.62C47.028 21.8813 47.4247 22.2407 47.686 22.698C47.9567 23.1553 48.092 23.6733 48.092 24.252ZM44.48 25.666C45.0213 25.666 45.4227 25.5447 45.684 25.302C45.9453 25.05 46.076 24.7 46.076 24.252C46.076 23.3 45.544 22.824 44.48 22.824H42.926V25.666H44.48ZM52.6936 29.446H55.9136V31H50.7336V21.228H52.6936V29.446ZM64.4014 29.138H60.5094L59.8654 31H57.8074L61.3214 21.214H63.6034L67.1174 31H65.0454L64.4014 29.138ZM63.8694 27.57L62.4554 23.482L61.0414 27.57H63.8694ZM77.4508 21.228L74.1468 27.598V31H72.1868V27.598L68.8688 21.228H71.0808L73.1808 25.694L75.2668 21.228H77.4508ZM83.2052 31.098C82.5239 31.098 81.9079 30.9813 81.3572 30.748C80.8159 30.5147 80.3866 30.1787 80.0692 29.74C79.7519 29.3013 79.5886 28.7833 79.5792 28.186H81.6792C81.7072 28.5873 81.8472 28.9047 82.0992 29.138C82.3606 29.3713 82.7152 29.488 83.1632 29.488C83.6206 29.488 83.9799 29.3807 84.2412 29.166C84.5026 28.942 84.6332 28.6527 84.6332 28.298C84.6332 28.0087 84.5446 27.7707 84.3672 27.584C84.1899 27.3973 83.9659 27.2527 83.6952 27.15C83.4339 27.038 83.0699 26.9167 82.6032 26.786C81.9686 26.5993 81.4506 26.4173 81.0492 26.24C80.6572 26.0533 80.3166 25.778 80.0272 25.414C79.7472 25.0407 79.6072 24.546 79.6072 23.93C79.6072 23.3513 79.7519 22.8473 80.0412 22.418C80.3306 21.9887 80.7366 21.662 81.2592 21.438C81.7819 21.2047 82.3792 21.088 83.0512 21.088C84.0592 21.088 84.8759 21.3353 85.5012 21.83C86.1359 22.3153 86.4859 22.9967 86.5512 23.874H84.3952C84.3766 23.538 84.2319 23.2627 83.9612 23.048C83.6999 22.824 83.3499 22.712 82.9112 22.712C82.5286 22.712 82.2206 22.81 81.9872 23.006C81.7632 23.202 81.6512 23.4867 81.6512 23.86C81.6512 24.1213 81.7352 24.3407 81.9032 24.518C82.0806 24.686 82.2952 24.826 82.5472 24.938C82.8086 25.0407 83.1726 25.162 83.6392 25.302C84.2739 25.4887 84.7919 25.6753 85.1932 25.862C85.5946 26.0487 85.9399 26.3287 86.2292 26.702C86.5186 27.0753 86.6632 27.5653 86.6632 28.172C86.6632 28.6947 86.5279 29.18 86.2572 29.628C85.9866 30.076 85.5899 30.4353 85.0672 30.706C84.5446 30.9673 83.9239 31.098 83.2052 31.098ZM96.2625 21.228V22.81H93.6585V31H91.6985V22.81H89.0945V21.228H96.2625ZM103.479 31.098C102.564 31.098 101.724 30.8833 100.959 30.454C100.193 30.0247 99.5866 29.432 99.1386 28.676C98.6906 27.9107 98.4666 27.0473 98.4666 26.086C98.4666 25.134 98.6906 24.28 99.1386 23.524C99.5866 22.7587 100.193 22.1613 100.959 21.732C101.724 21.3027 102.564 21.088 103.479 21.088C104.403 21.088 105.243 21.3027 105.999 21.732C106.764 22.1613 107.366 22.7587 107.805 23.524C108.253 24.28 108.477 25.134 108.477 26.086C108.477 27.0473 108.253 27.9107 107.805 28.676C107.366 29.432 106.764 30.0247 105.999 30.454C105.233 30.8833 104.393 31.098 103.479 31.098ZM103.479 29.348C104.067 29.348 104.585 29.2173 105.033 28.956C105.481 28.6853 105.831 28.3027 106.083 27.808C106.335 27.3133 106.461 26.7393 106.461 26.086C106.461 25.4327 106.335 24.8633 106.083 24.378C105.831 23.8833 105.481 23.5053 105.033 23.244C104.585 22.9827 104.067 22.852 103.479 22.852C102.891 22.852 102.368 22.9827 101.911 23.244C101.463 23.5053 101.113 23.8833 100.861 24.378C100.609 24.8633 100.483 25.4327 100.483 26.086C100.483 26.7393 100.609 27.3133 100.861 27.808C101.113 28.3027 101.463 28.6853 101.911 28.956C102.368 29.2173 102.891 29.348 103.479 29.348ZM116.225 31L114.069 27.192H113.145V31H111.185V21.228H114.853C115.609 21.228 116.253 21.3633 116.785 21.634C117.317 21.8953 117.713 22.2547 117.975 22.712C118.245 23.16 118.381 23.664 118.381 24.224C118.381 24.868 118.194 25.4513 117.821 25.974C117.447 26.4873 116.892 26.842 116.155 27.038L118.493 31H116.225ZM113.145 25.722H114.783C115.315 25.722 115.711 25.596 115.973 25.344C116.234 25.0827 116.365 24.7233 116.365 24.266C116.365 23.818 116.234 23.4727 115.973 23.23C115.711 22.978 115.315 22.852 114.783 22.852H113.145V25.722ZM123.364 22.81V25.26H126.654V26.814H123.364V29.404H127.074V31H121.404V21.214H127.074V22.81H123.364Z" fill="url(#paint1_linear_5325_7278)"/>
<defs>
<linearGradient id="paint0_linear_5325_7278" x1="0" y1="0" x2="114.281" y2="113.135" gradientUnits="userSpaceOnUse">
<stop stop-color="#9E37FF"/>
<stop offset="1" stop-color="#F237FF"/>
</linearGradient>
<linearGradient id="paint1_linear_5325_7278" x1="40" y1="16" x2="83.6925" y2="73.182" gradientUnits="userSpaceOnUse">
<stop stop-color="#9E37FF"/>
<stop offset="1" stop-color="#F237FF"/>
</linearGradient>
</defs>
</svg>
