<svg width="54" height="55" viewBox="0 0 54 55" fill="none" xmlns="http://www.w3.org/2000/svg">
<rect x="0.75" y="1.43066" width="52.5" height="52.5" rx="3.25" fill="url(#paint0_linear_5323_7105)"/>
<rect x="0.75" y="1.43066" width="52.5" height="52.5" rx="3.25" stroke="url(#paint1_linear_5323_7105)" stroke-width="1.5"/>
<path d="M21.9 36.2807C23.4 37.1807 25.2 37.6807 27 37.6807C32.5 37.6807 37 33.1807 37 27.6807C37 22.1807 32.5 17.6807 27 17.6807C21.5 17.6807 17 22.1807 17 27.6807C17 29.4807 17.5 31.1807 18.3 32.6807L17.4404 35.9867C17.2457 36.7356 17.9389 37.4124 18.683 37.1998L21.9 36.2807Z" stroke="white" stroke-width="1.5" stroke-miterlimit="10" stroke-linecap="round" stroke-linejoin="round"/>
<path d="M31.5 30.5292C31.5 30.6912 31.4639 30.8577 31.3873 31.0197C31.3107 31.1817 31.2116 31.3347 31.0809 31.4787C30.86 31.7217 30.6167 31.8972 30.3418 32.0097C30.0714 32.1222 29.7784 32.1807 29.4629 32.1807C29.0033 32.1807 28.512 32.0727 27.9937 31.8522C27.4755 31.6317 26.9572 31.3347 26.4434 30.9612C25.9251 30.5832 25.4339 30.1647 24.9652 29.7012C24.501 29.2332 24.0819 28.7427 23.7078 28.2297C23.3383 27.7167 23.0408 27.2037 22.8245 26.6952C22.6082 26.1822 22.5 25.6917 22.5 25.2237C22.5 24.9177 22.5541 24.6252 22.6622 24.3552C22.7704 24.0807 22.9417 23.8287 23.1805 23.6037C23.469 23.3202 23.7844 23.1807 24.1179 23.1807C24.2441 23.1807 24.3703 23.2077 24.483 23.2617C24.6002 23.3157 24.7038 23.3967 24.7849 23.5137L25.8305 24.9852C25.9116 25.0977 25.9702 25.2012 26.0108 25.3002C26.0513 25.3947 26.0739 25.4892 26.0739 25.5747C26.0739 25.6827 26.0423 25.7907 25.9792 25.8942C25.9206 25.9977 25.835 26.1057 25.7268 26.2137L25.3843 26.5692C25.3348 26.6187 25.3122 26.6772 25.3122 26.7492C25.3122 26.7852 25.3167 26.8167 25.3257 26.8527C25.3393 26.8887 25.3528 26.9157 25.3618 26.9427C25.4429 27.0912 25.5826 27.2847 25.7809 27.5187C25.9837 27.7527 26.2 27.9912 26.4344 28.2297C26.6778 28.4682 26.9121 28.6887 27.151 28.8912C27.3853 29.0892 27.5791 29.2242 27.7323 29.3052C27.7549 29.3142 27.7819 29.3277 27.8135 29.3412C27.8495 29.3547 27.8856 29.3592 27.9261 29.3592C28.0028 29.3592 28.0613 29.3322 28.1109 29.2827L28.4534 28.9452C28.5661 28.8327 28.6743 28.7472 28.7779 28.6932C28.8816 28.6302 28.9852 28.5987 29.0979 28.5987C29.1835 28.5987 29.2737 28.6167 29.3728 28.6572C29.472 28.6977 29.5756 28.7562 29.6883 28.8327L31.18 29.8902C31.2972 29.9712 31.3783 30.0657 31.4279 30.1782C31.473 30.2907 31.5 30.4032 31.5 30.5292Z" stroke="white" stroke-width="1.5" stroke-miterlimit="10"/>
<defs>
<linearGradient id="paint0_linear_5323_7105" x1="-4.59903e-07" y1="5.89648" x2="54" y2="54.3965" gradientUnits="userSpaceOnUse">
<stop offset="0.0653701" stop-color="#9E37FF"/>
<stop offset="1" stop-color="#F237FF"/>
</linearGradient>
<linearGradient id="paint1_linear_5323_7105" x1="0" y1="0.680664" x2="66.2697" y2="21.3775" gradientUnits="userSpaceOnUse">
<stop stop-color="#9E37FF"/>
<stop offset="1" stop-color="#F237FF"/>
</linearGradient>
</defs>
</svg>
