<svg width="54" height="54" viewBox="0 0 54 54" fill="none" xmlns="http://www.w3.org/2000/svg">
<rect x="0.75" y="0.75" width="52.5" height="52.5" rx="3.25" stroke="url(#paint0_linear_5323_7114)" stroke-width="1.5"/>
<path d="M21.9 35.6C23.4 36.5 25.2 37 27 37C32.5 37 37 32.5 37 27C37 21.5 32.5 17 27 17C21.5 17 17 21.5 17 27C17 28.8 17.5 30.5 18.3 32L17.4404 35.306C17.2457 36.0549 17.9389 36.7317 18.683 36.5191L21.9 35.6Z" stroke="url(#paint1_linear_5323_7114)" stroke-width="1.5" stroke-miterlimit="10" stroke-linecap="round" stroke-linejoin="round"/>
<path d="M31.5 29.8485C31.5 30.0105 31.4639 30.177 31.3873 30.339C31.3107 30.501 31.2116 30.654 31.0809 30.798C30.86 31.041 30.6167 31.2165 30.3418 31.329C30.0714 31.4415 29.7784 31.5 29.4629 31.5C29.0033 31.5 28.512 31.392 27.9937 31.1715C27.4755 30.951 26.9572 30.654 26.4434 30.2805C25.9251 29.9025 25.4339 29.484 24.9652 29.0205C24.501 28.5525 24.0819 28.062 23.7078 27.549C23.3383 27.036 23.0408 26.523 22.8245 26.0145C22.6082 25.5015 22.5 25.011 22.5 24.543C22.5 24.237 22.5541 23.9445 22.6622 23.6745C22.7704 23.4 22.9417 23.148 23.1805 22.923C23.469 22.6395 23.7844 22.5 24.1179 22.5C24.2441 22.5 24.3703 22.527 24.483 22.581C24.6002 22.635 24.7038 22.716 24.7849 22.833L25.8305 24.3045C25.9116 24.417 25.9702 24.5205 26.0108 24.6195C26.0513 24.714 26.0739 24.8085 26.0739 24.894C26.0739 25.002 26.0423 25.11 25.9792 25.2135C25.9206 25.317 25.835 25.425 25.7268 25.533L25.3843 25.8885C25.3348 25.938 25.3122 25.9965 25.3122 26.0685C25.3122 26.1045 25.3167 26.136 25.3257 26.172C25.3393 26.208 25.3528 26.235 25.3618 26.262C25.4429 26.4105 25.5826 26.604 25.7809 26.838C25.9837 27.072 26.2 27.3105 26.4344 27.549C26.6778 27.7875 26.9121 28.008 27.151 28.2105C27.3853 28.4085 27.5791 28.5435 27.7323 28.6245C27.7549 28.6335 27.7819 28.647 27.8135 28.6605C27.8495 28.674 27.8856 28.6785 27.9261 28.6785C28.0028 28.6785 28.0613 28.6515 28.1109 28.602L28.4534 28.2645C28.5661 28.152 28.6743 28.0665 28.7779 28.0125C28.8816 27.9495 28.9852 27.918 29.0979 27.918C29.1835 27.918 29.2737 27.936 29.3728 27.9765C29.472 28.017 29.5756 28.0755 29.6883 28.152L31.18 29.2095C31.2972 29.2905 31.3783 29.385 31.4279 29.4975C31.473 29.61 31.5 29.7225 31.5 29.8485Z" stroke="url(#paint2_linear_5323_7114)" stroke-width="1.5" stroke-miterlimit="10"/>
<defs>
<linearGradient id="paint0_linear_5323_7114" x1="0" y1="0" x2="66.2697" y2="20.6969" gradientUnits="userSpaceOnUse">
<stop stop-color="#9E37FF"/>
<stop offset="1" stop-color="#F237FF"/>
</linearGradient>
<linearGradient id="paint1_linear_5323_7114" x1="17" y1="17" x2="41.5443" y2="24.6655" gradientUnits="userSpaceOnUse">
<stop stop-color="#9E37FF"/>
<stop offset="1" stop-color="#F237FF"/>
</linearGradient>
<linearGradient id="paint2_linear_5323_7114" x1="22.5" y1="22.5" x2="33.545" y2="25.9495" gradientUnits="userSpaceOnUse">
<stop stop-color="#9E37FF"/>
<stop offset="1" stop-color="#F237FF"/>
</linearGradient>
</defs>
</svg>
