<svg width="25" height="24" viewBox="0 0 25 24" fill="none" xmlns="http://www.w3.org/2000/svg">
<g clip-path="url(#clip0_5203_7382)">
<path fill-rule="evenodd" clip-rule="evenodd" d="M6.64575 20.4948C6.81575 20.4948 6.98475 20.5378 7.13475 20.6228C8.75075 21.5298 10.4307 22.0098 11.9927 22.0098C17.4317 22.0098 22.0277 17.4038 22.0277 11.9528C22.0277 6.46977 17.5257 2.00977 11.9927 2.00977C6.49775 2.00977 2.02775 6.46977 2.02775 11.9528C2.02775 13.6938 2.50975 15.4338 3.42275 16.9858C3.56075 17.2198 3.59775 17.4998 3.52575 17.7618L2.46075 21.5868L6.38475 20.5298C6.47075 20.5058 6.55875 20.4948 6.64575 20.4948ZM1.02775 24.0098C0.764748 24.0098 0.507748 23.9058 0.317748 23.7138C0.0647478 23.4588 -0.0322522 23.0878 0.0637478 22.7418L1.48775 17.6248C0.531748 15.8618 0.0277478 13.9098 0.0277478 11.9528C0.0277478 5.36677 5.39475 0.00976562 11.9927 0.00976562C18.6277 0.00976562 24.0277 5.36677 24.0277 11.9528C24.0277 18.4878 18.5157 24.0098 11.9927 24.0098C10.2087 24.0098 8.32575 23.5108 6.51975 22.5638L1.28875 23.9748C1.20175 23.9978 1.11475 24.0098 1.02775 24.0098Z" fill="white"/>
<path fill-rule="evenodd" clip-rule="evenodd" d="M8.91988 7.02415C8.75788 7.17115 8.53388 7.40415 8.43388 7.50815C8.30488 7.64115 8.19988 7.74615 8.14688 7.79215C7.95788 7.95515 7.51488 8.38315 7.40088 8.88615C7.21288 9.72815 7.56788 10.8431 8.37788 11.9471C9.38588 13.3211 11.0689 15.2451 14.0509 16.0881C14.7249 16.2791 15.2969 16.2141 15.8019 15.8911C16.0819 15.7121 16.2859 15.4121 16.3589 15.0701C16.3769 14.9861 16.4049 14.9051 16.4439 14.8291L16.7879 14.1481L15.4529 13.5321L14.8189 14.3541C14.4839 14.7871 13.9119 14.9591 13.3949 14.7771C12.6689 14.5221 10.2019 13.4891 8.84688 10.8791C8.60788 10.4141 8.67088 9.86015 9.00888 9.46515L9.65388 8.71915L8.91988 7.02415ZM14.7609 18.1931C14.3529 18.1931 13.9339 18.1341 13.5069 18.0131C9.51888 16.8851 7.44588 14.0581 6.76488 13.1291C5.59688 11.5371 5.12988 9.87515 5.44988 8.44815C5.68488 7.40415 6.41788 6.64315 6.83488 6.28215C6.86088 6.25715 6.92188 6.19415 6.99488 6.11815C7.69988 5.38815 8.12988 4.98215 8.72188 5.01015L9.43188 5.04915C9.95288 5.07815 10.4059 5.39415 10.6129 5.87415L11.6489 8.29615C11.8529 8.77115 11.7659 9.33415 11.4259 9.72715L10.8629 10.3781C11.6789 11.6651 12.8549 12.3631 13.5739 12.6931L14.1769 11.9111C14.5669 11.4031 15.2489 11.2321 15.8339 11.5051L18.2319 12.6101C18.8139 12.8781 19.1289 13.5051 18.9969 14.1341C18.9799 14.2191 18.9499 14.3021 18.9109 14.3801L18.2819 15.6261C18.0739 16.4301 17.5679 17.1351 16.8789 17.5761C16.2369 17.9861 15.5199 18.1931 14.7609 18.1931Z" fill="white"/>
</g>
<defs>
<clipPath id="clip0_5203_7382">
<rect width="25" height="24" fill="white"/>
</clipPath>
</defs>
</svg>
